<svg xmlns="http://www.w3.org/2000/svg" width="512" height="512" viewBox="0 0 512 512" role="img" aria-label="agent-co icon">
  <defs>
    <linearGradient id="bg" x1="0" y1="0" x2="1" y2="1">
      <stop offset="0%" stop-color="#ffffff"/>
      <stop offset="100%" stop-color="#edf1f4"/>
    </linearGradient>
    <linearGradient id="node" x1="0" y1="0" x2="1" y2="1">
      <stop offset="0%" stop-color="#ffffff"/>
      <stop offset="100%" stop-color="#d4dbe1"/>
    </linearGradient>
    <filter id="shadow" x="-20%" y="-20%" width="160%" height="160%">
      <feDropShadow dx="0" dy="18" stdDeviation="18" flood-color="#9aa4ae" flood-opacity="0.22"/>
    </filter>
  </defs>

  <rect width="512" height="512" rx="120" fill="url(#bg)"/>
  <rect x="24" y="24" width="464" height="464" rx="112" fill="none" stroke="#dde3e8" stroke-width="8"/>

  <g filter="url(#shadow)">
    <path d="M146 286C160 192 228 132 306 132C363 132 410 161 435 211" fill="none" stroke="#c7cfd6" stroke-width="26" stroke-linecap="round"/>
    <path d="M148 288C171 377 234 420 309 420C364 420 409 392 434 342" fill="none" stroke="#aeb8c1" stroke-width="26" stroke-linecap="round"/>
    <path d="M190 328L257 220L325 334" fill="none" stroke="#8d98a3" stroke-width="20" stroke-linecap="round" stroke-linejoin="round"/>

    <circle cx="188" cy="330" r="46" fill="url(#node)" stroke="#adb6be" stroke-width="7"/>
    <circle cx="257" cy="220" r="46" fill="url(#node)" stroke="#adb6be" stroke-width="7"/>
    <circle cx="326" cy="334" r="46" fill="url(#node)" stroke="#adb6be" stroke-width="7"/>

    <circle cx="188" cy="330" r="13" fill="#8f99a4"/>
    <circle cx="257" cy="220" r="13" fill="#8f99a4"/>
    <circle cx="326" cy="334" r="13" fill="#8f99a4"/>
  </g>
</svg>
